# xmcd CD database file
#
# Track frame offsets:
#	150
#	16044
#	34702
#	54719
#	77847
#	97941
#	110532
#	130490
#	152052
#	173319
#	192490
#
# Disc length: 2987 seconds
#
# Revision: 0
# Processed by: cddbd v1.5.2PL0 Copyright (c) Steve Scherf et al.
# Submitted via: CDex 1.70beta2
#
DISCID=810ba90b
DTITLE=杏露虫 - Lick me all over
DYEAR=2006
DGENRE=New Age
TTITLE0=Oh! my Birthday
TTITLE1=妖精エコー
TTITLE2=薔薇色
TTITLE3=ラプソディ・メロディ
TTITLE4=誰も知らない
TTITLE5=逃走
TTITLE6=ユーモレスク
TTITLE7=ピーターパン症候群
TTITLE8=オリエンタル
TTITLE9=収束ウィスパー
TTITLE10=サロメ
EXTD=YEAR: 2006
EXTT0=
EXTT1=
EXTT2=
EXTT3=
EXTT4=
EXTT5=
EXTT6=
EXTT7=
EXTT8=
EXTT9=
EXTT10=
PLAYORDER=
